<?xml version="1.0" encoding="UTF-8"?>
<svg id="Layer_1" data-name="Layer 1" xmlns="http://www.w3.org/2000/svg" viewBox="0 0 199.18 63.11">
  <defs>
    <style>
      .cls-1 {
        fill: #fff;
      }
    </style>
  </defs>
  <g>
    <path class="cls-1" d="M4.72,62.95l-1.95-3.16h-1.54v3.16H0v-8.2h3.45c1.56,0,2.63,1.01,2.63,2.52s-1,2.26-2.04,2.4l2.1,3.28h-1.43ZM3.29,55.83H1.23v2.88h2.07c.89,0,1.52-.58,1.52-1.44s-.64-1.44-1.52-1.44Z"/>
    <path class="cls-1" d="M7.59,62.95v-8.2h1.23v8.2h-1.23Z"/>
    <path class="cls-1" d="M10.65,62.95v-8.2h2.93c2.56,0,4.25,1.75,4.25,4.11s-1.7,4.09-4.25,4.09h-2.93ZM11.88,61.87h1.7c1.89,0,2.99-1.35,2.99-3.01s-1.06-3.02-2.99-3.02h-1.7v6.04Z"/>
    <path class="cls-1" d="M19.31,62.95v-8.2h5.51v1.08h-4.28v2.4h4.19v1.08h-4.19v2.56h4.28v1.08h-5.51Z"/>
    <path class="cls-1" d="M31.53,62.95v-7.12h-2.54v-1.08h6.31v1.08h-2.53v7.12h-1.23Z"/>
    <path class="cls-1" d="M40.03,54.61c2.45,0,4.13,1.81,4.13,4.24s-1.68,4.24-4.13,4.24-4.13-1.81-4.13-4.24,1.68-4.24,4.13-4.24ZM40.03,55.71c-1.76,0-2.86,1.34-2.86,3.15s1.11,3.15,2.86,3.15,2.86-1.35,2.86-3.15-1.13-3.15-2.86-3.15Z"/>
    <path class="cls-1" d="M49.55,54.61c1.54,0,2.56.7,3.24,1.62l-1,.58c-.47-.63-1.29-1.11-2.25-1.11-1.71,0-2.99,1.3-2.99,3.15s1.28,3.16,2.99,3.16c.91,0,1.68-.44,2.08-.81v-1.48h-2.63v-1.08h3.86v3.01c-.79.87-1.92,1.45-3.31,1.45-2.35,0-4.25-1.7-4.25-4.25s1.91-4.24,4.25-4.24Z"/>
    <path class="cls-1" d="M54.43,62.95v-8.2h5.51v1.08h-4.28v2.4h4.19v1.08h-4.19v2.56h4.28v1.08h-5.51Z"/>
    <path class="cls-1" d="M63.47,62.95v-7.12h-2.54v-1.08h6.31v1.08h-2.53v7.12h-1.23Z"/>
    <path class="cls-1" d="M74.28,62.95v-3.66h-4.54v3.66h-1.23v-8.2h1.23v3.44h4.54v-3.44h1.23v8.2h-1.23Z"/>
    <path class="cls-1" d="M77.32,62.95v-8.2h5.51v1.08h-4.28v2.4h4.19v1.08h-4.19v2.56h4.28v1.08h-5.51Z"/>
    <path class="cls-1" d="M89.08,62.95l-1.95-3.16h-1.54v3.16h-1.23v-8.2h3.45c1.56,0,2.63,1.01,2.63,2.52s-1,2.26-2.04,2.4l2.1,3.28h-1.43ZM87.66,55.83h-2.07v2.88h2.07c.89,0,1.52-.58,1.52-1.44s-.64-1.44-1.52-1.44Z"/>
    <path class="cls-1" d="M92.49,61.55c.42,0,.77.34.77.76s-.36.77-.77.77-.76-.36-.76-.77.34-.76.76-.76Z"/>
    <path class="cls-1" d="M98.05,62.95v-8.2h2.93c2.56,0,4.25,1.75,4.25,4.11s-1.7,4.09-4.25,4.09h-2.93ZM99.28,61.87h1.7c1.89,0,2.99-1.35,2.99-3.01s-1.06-3.02-2.99-3.02h-1.7v6.04Z"/>
    <path class="cls-1" d="M106.71,62.95v-8.2h1.23v8.2h-1.23Z"/>
    <path class="cls-1" d="M109.97,60.85c.55.61,1.44,1.16,2.58,1.16,1.33,0,1.8-.68,1.8-1.27,0-.86-.94-1.11-1.98-1.38-1.32-.34-2.84-.73-2.84-2.4,0-1.35,1.19-2.34,2.9-2.34,1.27,0,2.26.41,2.99,1.14l-.71.91c-.63-.66-1.49-.96-2.37-.96s-1.54.47-1.54,1.16c0,.74.89.97,1.91,1.23,1.34.36,2.9.77,2.9,2.52,0,1.28-.89,2.47-3.1,2.47-1.46,0-2.53-.53-3.23-1.3l.7-.95Z"/>
    <path class="cls-1" d="M116.67,58.86c0-2.52,1.87-4.24,4.2-4.24,1.61,0,2.62.77,3.26,1.73l-1.04.55c-.43-.69-1.24-1.19-2.21-1.19-1.66,0-2.94,1.3-2.94,3.15s1.28,3.15,2.94,3.15c.97,0,1.78-.5,2.21-1.19l1.04.55c-.65.96-1.65,1.73-3.26,1.73-2.34,0-4.2-1.72-4.2-4.24Z"/>
    <path class="cls-1" d="M129.15,54.61c2.45,0,4.13,1.81,4.13,4.24s-1.68,4.24-4.13,4.24-4.13-1.81-4.13-4.24,1.68-4.24,4.13-4.24ZM129.15,55.71c-1.76,0-2.87,1.34-2.87,3.15s1.11,3.15,2.87,3.15,2.86-1.35,2.86-3.15-1.13-3.15-2.86-3.15Z"/>
    <path class="cls-1" d="M136.93,62.95l-3.26-8.2h1.4l2.62,6.86,2.63-6.86h1.4l-3.26,8.2h-1.54Z"/>
    <path class="cls-1" d="M142.7,62.95v-8.2h5.51v1.08h-4.28v2.4h4.19v1.08h-4.19v2.56h4.28v1.08h-5.51Z"/>
    <path class="cls-1" d="M154.46,62.95l-1.95-3.16h-1.54v3.16h-1.23v-8.2h3.45c1.56,0,2.63,1.01,2.63,2.52s-1,2.26-2.04,2.4l2.1,3.28h-1.43ZM153.03,55.83h-2.06v2.88h2.06c.89,0,1.52-.58,1.52-1.44s-.64-1.44-1.52-1.44Z"/>
    <path class="cls-1" d="M167.56,62.95v-6.52l-2.66,6.52h-.52l-2.66-6.52v6.52h-1.23v-8.2h1.76l2.39,5.89,2.39-5.89h1.76v8.2h-1.23Z"/>
    <path class="cls-1" d="M174.39,54.61c2.45,0,4.13,1.81,4.13,4.24s-1.68,4.24-4.13,4.24-4.13-1.81-4.13-4.24,1.68-4.24,4.13-4.24ZM174.39,55.71c-1.76,0-2.86,1.34-2.86,3.15s1.11,3.15,2.86,3.15,2.86-1.35,2.86-3.15-1.13-3.15-2.86-3.15Z"/>
    <path class="cls-1" d="M184.72,62.95l-1.95-3.16h-1.54v3.16h-1.23v-8.2h3.45c1.56,0,2.63,1.01,2.63,2.52s-1,2.26-2.04,2.4l2.1,3.28h-1.43ZM183.3,55.83h-2.07v2.88h2.07c.88,0,1.52-.58,1.52-1.44s-.64-1.44-1.52-1.44Z"/>
    <path class="cls-1" d="M187.59,62.95v-8.2h5.51v1.08h-4.28v2.4h4.19v1.08h-4.19v2.56h4.28v1.08h-5.51Z"/>
    <path class="cls-1" d="M195.18,61.55c.42,0,.77.34.77.76s-.36.77-.77.77-.76-.36-.76-.77.34-.76.76-.76Z"/>
  </g>
  <path class="cls-1" d="M33.1,8.79c-1-2.06-2.38-3.71-4.14-4.95-1.76-1.24-3.81-2.1-6.15-2.58s-4.87-.72-7.59-.72H.28v40.2l9.48-.06-.03-10.48h11.58c1.68.01,3.3-.3,4.86-.92,1.56-.62,2.94-1.51,4.14-2.67,1.2-1.16,2.44-2.33,3.18-4.05.74-1.72,1.11-3.68,1.11-5.88,0-3.2-.5-5.83-1.5-7.89ZM25.42,19.29c-.35.82-.94,1.37-1.51,1.92-.57.55-1.22.97-1.96,1.27-.74.29-1.51.44-2.3.44h-9.91s0-14.07,0-14.07h7.02c1.29,0,2.49.11,3.6.34,1.11.23,2.08.64,2.92,1.22.83.59,1.49,1.37,1.96,2.35.47.98.71,2.22.71,3.74,0,1.04-.18,1.97-.53,2.79Z"/>
  <path class="cls-1" d="M98.79,41.28c-2.72,0-5.39-.43-8.01-1.29-2.62-.86-4.95-2.16-6.99-3.9s-3.69-3.9-4.95-6.48-1.89-5.57-1.89-8.97.65-6.64,1.95-9.24c1.3-2.6,2.99-4.74,5.07-6.42,2.08-1.68,4.43-2.93,7.05-3.75,2.62-.82,5.25-1.23,7.89-1.23,2.32,0,4.55.31,6.69.93,2.14.62,4.05,1.5,5.73,2.64,1.68,1.14,3.07,2.53,4.17,4.17,1.1,1.64,1.77,3.46,2.01,5.46h-10.8c-.16-.8-.5-1.5-1.02-2.1s-1.15-1.1-1.89-1.5c-.74-.4-1.56-.71-2.46-.93-.9-.22-1.83-.33-2.79-.33-1.32,0-2.64.23-3.96.69-1.32.46-2.51,1.18-3.57,2.16-1.06.98-1.92,2.25-2.58,3.81-.66,1.56-.99,3.44-.99,5.64s.31,4.08.93,5.64c.62,1.56,1.45,2.83,2.49,3.81,1.04.98,2.22,1.7,3.54,2.16,1.32.46,2.7.69,4.14.69.96,0,1.89-.11,2.79-.33.9-.22,1.72-.53,2.46-.93.74-.4,1.37-.91,1.89-1.53.52-.62.86-1.31,1.02-2.07h10.8c-.36,1.92-1.1,3.69-2.22,5.31-1.12,1.62-2.51,3.02-4.17,4.2-1.66,1.18-3.55,2.09-5.67,2.73-2.12.64-4.34.96-6.66.96Z"/>
  <polygon class="cls-1" points="158.14 40.39 144.28 23.41 141.12 19.5 142.7 17.58 156.56 .6 144.86 .6 133.76 15.12 133.76 .6 123.26 .6 123.26 40.68 133.76 40.68 133.76 28.44 135.6 26.2 146.44 40.39 158.14 40.39"/>
  <path class="cls-1" d="M186.89,25.71c2.31-.4,4.3-1.12,5.93-2.19,2.08-1.36,3.62-2.98,4.62-4.86,1-1.88,1.44-3.88,1.32-6-.12-2.12-.79-4.08-2.01-5.88-1.22-1.8-2.98-3.29-5.28-4.47-2.3-1.18-5.17-1.77-8.61-1.77h-18.9v40.2l9.72-.06v-14.64h2.85l-.15.2,11.1,14.52h11.7l-12.29-15.05ZM173.67,8.7h7.44c2.4,0,4.2.48,5.4,1.44s1.8,2.01,1.8,3.15-.6,2.19-1.8,3.15c-1.2.96-3,1.44-5.4,1.44h-7.44v-9.18Z"/>
  <path class="cls-1" d="M65.38,40.77h9.84L61.54.69h-12.84l-13.56,40.08h10.38l.06-.2c.69-.98,7.15-9.87,16.26-10.59l3.54,10.79ZM53.2,15.75l1.92-6.48,3.9,11.99c-3.11.52-5.93,1.61-8.42,2.97l2.6-8.48Z"/>
</svg>